# xmcd
#
# Track frame offsets: 
#        150
#        9886
#        19659
#        29512
#        40613
#        54339
#        61855
#        72766
#        86192
#        96608
#
# Disc length: 1432 seconds
#
# Revision: 0
# Processed by: cddbd v1.5.2PL0 Copyright (c) Steve Scherf et al.
# Submitted via: ExactAudioCopy v0.99pb5
#
DISCID=7705960a
DTITLE=Mickey Gilley - Mickey Gilley - Best of Hits
DYEAR=1900
DGENRE=Crossover
TTITLE0=True Love Ways (Live)
TTITLE1=Talk To Me (Live)
TTITLE2=Put Your Dreams Away (Live)
TTITLE3=That's All That Matters (Live)
TTITLE4=Don't All The Girls Get Prettier At Closing Time (Live)
TTITLE5=Lookin' For Love (Live)
TTITLE6=You Don't Know Me (Live)
TTITLE7=I'm The One Mama Warned You About (Live)
TTITLE8=I'm To Blame
TTITLE9=There's No One Like You
EXTD=
EXTT0=
EXTT1=
EXTT2=
EXTT3=
EXTT4=
EXTT5=
EXTT6=
EXTT7=
EXTT8=
EXTT9=
PLAYORDER=
